<svg xmlns="http://www.w3.org/2000/svg" width="256" height="256" viewBox="0 0 100 100"><rect width="100" height="100" rx="20" fill="#9013fe"></rect><path fill="#fff" d="M38.18 52.19L32.24 57.23L40.22 63.83Q41.72 65.09 42.11 65.75Q42.50 66.41 42.50 67.01L42.50 67.01Q42.50 68.45 40.64 70.91L40.64 70.91Q38.60 73.43 37.04 73.43L37.04 73.43Q35.72 73.43 33.38 71.69L33.38 71.69L32.78 71.27Q31.40 70.13 28.52 67.28Q25.64 64.43 24.14 63.23L24.14 63.23L24.14 67.85Q24.14 69.23 24.05 69.92Q23.96 70.61 23.48 71.51L23.48 71.51Q22.70 73.07 18.86 73.07L18.86 73.07Q15.08 73.07 14.24 71.45L14.24 71.45Q13.82 70.55 13.73 69.86Q13.64 69.17 13.64 67.79L13.64 67.79L13.64 31.85Q13.64 30.47 13.73 29.78Q13.82 29.09 14.24 28.19L14.24 28.19Q15.08 26.57 18.92 26.57L18.92 26.57Q21.80 26.57 23 27.59L23 27.59Q24.02 28.43 24.08 30.23L24.08 30.23Q24.14 30.77 24.14 31.91L24.14 31.91L24.14 50.93Q25.22 50.03 27.41 47.87Q29.60 45.71 30.68 44.81L30.68 44.81L31.40 44.33Q33.50 42.71 35 42.71Q36.50 42.71 38.45 45.14Q40.40 47.57 40.40 48.95Q40.40 50.33 38.18 52.19L38.18 52.19ZM48.68 29.03L48.68 29.03L82.04 29.03Q83.96 29.03 84.86 29.48Q85.76 29.93 86.06 30.89Q86.36 31.85 86.36 33.41Q86.36 34.97 86.06 35.90Q85.76 36.83 85.04 37.19L85.04 37.19Q83.96 37.73 81.98 37.73L81.98 37.73L70.52 37.73L70.52 67.91Q70.52 69.29 70.43 69.95Q70.34 70.61 69.89 71.48Q69.44 72.35 68.30 72.71Q67.16 73.07 65.30 73.07Q63.44 73.07 62.33 72.71Q61.22 72.35 60.77 71.48Q60.32 70.61 60.23 69.92Q60.14 69.23 60.14 67.85L60.14 67.85L60.14 37.73L48.62 37.73Q46.70 37.73 45.80 37.28Q44.90 36.83 44.60 35.87Q44.30 34.91 44.30 33.35Q44.30 31.79 44.60 30.86Q44.90 29.93 45.62 29.57L45.62 29.57Q46.70 29.03 48.68 29.03Z"></path></svg>